<?xml version="1.0" encoding="iso-8859-1"?>
<!-- Generator: Adobe Illustrator 19.0.0, SVG Export Plug-In . SVG Version: 6.00 Build 0)  -->
<svg version="1.1" id="Layer_1" xmlns="http://www.w3.org/2000/svg" xmlns:xlink="http://www.w3.org/1999/xlink" x="0px" y="0px"
	 viewBox="0 0 512 512" style="enable-background:new 0 0 512 512;" xml:space="preserve">
<rect x="115.2" y="153.6" style="fill:#FEDEA1;" width="102.4" height="102.4"/>
<path style="fill:#6FB0B6;" d="M38.4,371.2V89.6h435.2v281.6H38.4z M217.6,256V153.6H115.2V256H217.6z"/>
<g>
	<path style="fill:#573A32;" d="M499.2,409.6H12.8c-7.074,0-12.8,5.726-12.8,12.8s5.726,12.8,12.8,12.8h486.4
		c7.074,0,12.8-5.726,12.8-12.8S506.274,409.6,499.2,409.6z"/>
	<path style="fill:#573A32;" d="M51.2,384h409.6c14.14,0,25.6-11.46,25.6-25.6v-256c0-14.14-11.46-25.6-25.6-25.6H51.2
		c-14.14,0-25.6,11.46-25.6,25.6v256C25.6,372.54,37.06,384,51.2,384z M51.2,102.4h409.6v256H51.2V102.4z"/>
	<path style="fill:#573A32;" d="M230.4,140.8h-128v128h128V140.8z M204.8,243.2H128v-76.8h76.8V243.2z"/>
	<rect x="256" y="140.8" style="fill:#573A32;" width="153.6" height="25.6"/>
	<rect x="256" y="192" style="fill:#573A32;" width="153.6" height="25.6"/>
	<rect x="102.4" y="294.4" style="fill:#573A32;" width="307.2" height="25.6"/>
	<rect x="256" y="243.2" style="fill:#573A32;" width="153.6" height="25.6"/>
</g>
<g>
</g>
<g>
</g>
<g>
</g>
<g>
</g>
<g>
</g>
<g>
</g>
<g>
</g>
<g>
</g>
<g>
</g>
<g>
</g>
<g>
</g>
<g>
</g>
<g>
</g>
<g>
</g>
<g>
</g>
</svg>
