<?xml version="1.0" encoding="iso-8859-1"?>
<!-- Generator: Adobe Illustrator 19.0.0, SVG Export Plug-In . SVG Version: 6.00 Build 0)  -->
<svg version="1.1" id="Layer_1" xmlns="http://www.w3.org/2000/svg" xmlns:xlink="http://www.w3.org/1999/xlink" x="0px" y="0px"
	 viewBox="0 0 512 512" style="enable-background:new 0 0 512 512;" xml:space="preserve">
<circle style="fill:#366695;" cx="256" cy="256" r="256"/>
<path style="fill:#273B7A;" d="M512,256c0-8.449-0.421-16.799-1.221-25.04L391.247,111.428l-24.576,21.025v187.926l-51.452-51.45
	l-0.971,2.222l-11.128-11.128h-23.311l-88.543-88.543l-0.953,6.444l-32.577-6.444l-18.411,18.413v143.682h14.115l-7.771,50.712l0,0
	l-19.509,8.335l123.728,119.299c2.032,0.048,4.068,0.078,6.111,0.078C397.384,512,512,397.384,512,256z"/>
<path style="fill:#FFEDB5;" d="M227.556,404.256c-19.011,0-34.478-15.467-34.478-34.478V199.111
	c0-12.357-10.054-22.411-22.411-22.411c-12.357,0-22.411,10.054-22.411,22.411v85.333h-12.067v-85.333
	c0-19.011,15.467-34.478,34.478-34.478s34.478,15.467,34.478,34.478v170.667c0,12.357,10.054,22.411,22.411,22.411
	c12.357,0,22.411-10.054,22.411-22.411v-85.333c0-19.011,15.467-34.478,34.478-34.478s34.478,15.467,34.478,34.478v28.444
	c0,12.357,10.054,22.411,22.411,22.411c12.357,0,22.411-10.054,22.411-22.411v-85.333h12.067v85.333
	c0,19.011-15.467,34.478-34.478,34.478s-34.478-15.467-34.478-34.478v-28.444c0-12.357-10.054-22.411-22.411-22.411
	c-12.357,0-22.411,10.054-22.411,22.411v85.333C262.034,388.789,246.567,404.256,227.556,404.256z"/>
<path style="fill:#FFC61B;" d="M369.778,229.279L369.778,229.279c14.281,0,25.859-11.578,25.859-25.859v-77.576
	c0-14.281-11.578-25.859-25.859-25.859l0,0c-14.281,0-25.859,11.578-25.859,25.859v77.576
	C343.919,217.702,355.497,229.279,369.778,229.279z"/>
<path style="fill:#EAA22F;" d="M369.778,99.987v129.293c14.281,0,25.859-11.578,25.859-25.859v-77.576
	C395.636,111.564,384.059,99.987,369.778,99.987z"/>
<path style="fill:#FFC61B;" d="M142.222,398.222L142.222,398.222c14.281,0,25.859-11.578,25.859-25.859v-77.576
	c0-14.281-11.578-25.859-25.859-25.859l0,0c-14.281,0-25.859,11.578-25.859,25.859v77.576
	C116.364,386.644,127.941,398.222,142.222,398.222z"/>
<path style="fill:#EAA22F;" d="M142.222,268.929v129.293c14.281,0,25.859-11.578,25.859-25.859v-77.576
	C168.081,280.507,156.503,268.929,142.222,268.929z"/>
<g>
</g>
<g>
</g>
<g>
</g>
<g>
</g>
<g>
</g>
<g>
</g>
<g>
</g>
<g>
</g>
<g>
</g>
<g>
</g>
<g>
</g>
<g>
</g>
<g>
</g>
<g>
</g>
<g>
</g>
</svg>
