<?xml version="1.0" encoding="iso-8859-1"?>
<!-- Generator: Adobe Illustrator 19.0.0, SVG Export Plug-In . SVG Version: 6.00 Build 0)  -->
<svg version="1.1" id="Layer_1" xmlns="http://www.w3.org/2000/svg" xmlns:xlink="http://www.w3.org/1999/xlink" x="0px" y="0px"
	 viewBox="0 0 511.999 511.999" style="enable-background:new 0 0 511.999 511.999;" xml:space="preserve">
<g>
	<g>
		<g>
			<path d="M501.011,447.902L347.54,294.431c20.009-30.046,31.689-66.093,31.689-104.821C379.229,85.059,294.17,0,189.618,0
				S0.008,85.059,0.008,189.61s85.059,189.61,189.61,189.61c38.728,0,74.774-11.68,104.821-31.689L447.91,501.002
				c7.092,7.092,16.521,10.997,26.551,10.997c10.03,0,19.458-3.905,26.55-10.998C515.65,486.363,515.65,462.542,501.011,447.902z
				 M189.618,359.22c-93.523,0-169.61-76.086-169.61-169.61C20.008,96.087,96.095,20,189.618,20s169.61,76.087,169.61,169.61
				S283.141,359.22,189.618,359.22z M486.868,486.86c-3.314,3.314-7.721,5.14-12.407,5.14c-4.688,0-9.094-1.825-12.408-5.14
				L310.648,335.455c9.013-7.492,17.323-15.802,24.815-24.815l151.405,151.404C493.709,468.887,493.709,480.019,486.868,486.86z"/>
			<path d="M189.619,45.177c-79.641,0-144.433,64.792-144.433,144.433c0,5.522,4.478,10,10,10c5.522,0,10-4.477,10-10
				c0-68.613,55.821-124.433,124.433-124.433c5.522,0,10-4.478,10-10S195.141,45.177,189.619,45.177z"/>
			<path d="M320.029,127.457c-14.223-29.79-38.461-54.029-68.25-68.253c-4.984-2.381-10.954-0.268-13.333,4.716
				c-2.379,4.983-0.268,10.953,4.716,13.333c25.672,12.258,46.561,33.147,58.818,58.821c1.716,3.593,5.298,5.693,9.031,5.693
				c1.444,0,2.911-0.314,4.302-0.977C320.297,138.41,322.408,132.441,320.029,127.457z"/>
		</g>
	</g>
</g>
<g>
</g>
<g>
</g>
<g>
</g>
<g>
</g>
<g>
</g>
<g>
</g>
<g>
</g>
<g>
</g>
<g>
</g>
<g>
</g>
<g>
</g>
<g>
</g>
<g>
</g>
<g>
</g>
<g>
</g>
</svg>
